<?xml version="1.0" encoding="utf-8"?>
<!-- Generator: Adobe Illustrator 25.0.0, SVG Export Plug-In . SVG Version: 6.00 Build 0)  -->
<svg version="1.1" id="北邮_logo" xmlns="http://www.w3.org/2000/svg" xmlns:xlink="http://www.w3.org/1999/xlink" x="0px"
	 y="0px" viewBox="0 0 565 565" style="enable-background:new 0 0 565 565;" xml:space="preserve">
<style type="text/css">
	.st0{fill:#003399;}
	.st1{fill:none;stroke:#003399;stroke-width:2;stroke-miterlimit:10;}
	.st2{fill:none;stroke:#003399;stroke-width:4;stroke-miterlimit:10;}
</style>
<path id="中间部分" class="st0" d="M152,434.4c0,0,18.5-19.6,24.1-25c56.9,42.9,123.8,47.3,177.3,22.5l-10.9-24.4l15.7-7
	l10.9,23c49-29.5,83.2-85.4,81.7-159l33-3.1C494.3,461.2,272.8,543,152,434.4z M62.2,290.3l0.2,5.7h313.8
	c-12.7-25.6-25.4-51.2-38-76.8c-1.8-3.8-3.6-8.5-2.3-9.5s2.2,0.1,3.6,0.9c10.6,6.3,21.6,24.8,22.3,26c4.6,7.7,8.2,13.9,10.3,17.6
	l19.7-8.8c-5-12.6-11.9-24.4-20.5-34.9c-5.7-6.9-12.1-13.2-19.1-18.7c-0.6-0.5-0.7-1.5-0.2-2.1c0,0,0.1-0.1,0.1-0.1l5.8-5.5
	c0.5-0.6,1.3-0.6,1.8-0.2c0,0,0,0,0.1,0.1c9.3,7.2,17.7,15.6,25,24.9c7.5,9.5,13.7,19.8,18.6,30.8l23.3-11.9
	c-5.1-13.1-11.9-25.4-20.3-36.6c-8.6-11.5-18.8-21.8-30.3-30.4c-0.7-0.5-0.8-1.4-0.3-2.1c0,0,0.1-0.1,0.1-0.1
	c2.6-2.9,4.3-5.6,6.5-8.4c0.5-0.7,1.5-0.8,2.2-0.3c10.5,9.2,24.2,22.1,36.2,39.9c11.5,17.1,20.3,35.8,26.3,55.5l33.1-8.4
	c-2.8-11-26.4-100.3-114.6-139.1c-70.6-31-154.9-17.4-216.3,34.7c11.5,2.9,71.7,18.7,92.1,69.6c3.5,8.6,14.4,35.8,1.3,55.4
	s-44.9,21.3-57.9,20.6s-39.9-14.3-61.6-12.5c-27,4-28.3,17.5-50.8,24.7C69,290.6,65.6,290.6,62.2,290.3z M344.6,370.4l-15.7,7.1
	l7.1,15.6l15.6-7L344.6,370.4z M334,346.8l-15.7,7l7.1,15.7l15.6-7L334,346.8z M322.9,322.2l-15.6,7.1l7,15.6l15.6-7L322.9,322.2z"
	/>
<path id="BUPT_英文_" class="st0" d="M126,452.7c2.5-0.3,4.7,0.6,7.4,3l5.9,5.2L109,495.4l-5.9-5.2c-2.7-2.3-3.8-4.3-3.8-6.9
	s1.1-4.9,4.2-8.5s4.3-4.3,7.5-4.6c1.1-0.1,2.3,0.1,3.3,0.5c-0.7-1-1.1-2.2-1.1-3.4c-0.1-3.5,1.9-6.3,4.1-8.7
	C121,454.3,123.3,453,126,452.7z M105.3,487.6l3.3,2.8l11.2-12.8l-3.2-2.8c-3-2.6-6.2-2.3-10.3,2.4S102.4,485,105.3,487.6z
	 M118.8,472.3l3.2,2.8l12.3-14.1l-3.2-2.8c-3.1-2.7-6.2-2.8-11.1,2.7S115.6,469.5,118.8,472.3L118.8,472.3z M120.2,443.4l-33.9,31
	l-10.2-11.3l2.5-2.3l7.8,8.6l13.2-12l-6.8-7.4l2.5-2.3l6.8,7.4l13.2-12.1l-7.9-8.6l2.6-2.3L120.2,443.4z M105.4,426.3l-36.3,28.2
	l-2.2-2.9l36.2-28.2L105.4,426.3z M90.7,409.3c2.4,0.5,4.5,2,5.8,4.1c1.6,2.2,2.1,5,1.2,7.6l-3.6-0.8c0.7-1.6,0.6-3.4-0.4-4.9
	c-1.7-2.6-5.1-3.3-8.9-0.8l-30.1,19.9l-2-3l30.1-19.9C85.5,409.7,88.2,408.9,90.7,409.3L90.7,409.3z M86.8,398.8l-40,22.5l-1.8-3.1
	l40.1-22.5L86.8,398.8z M74.3,373.5l-27.7,25.9l32.7-14.7l1.5,3.3l-41.9,18.9l-1.5-3.4l27.7-25.8l-32.7,14.7l-1.5-3.3l41.9-18.8
	L74.3,373.5z M67.6,353.6c0.9,2.3,0.7,4.9-0.6,7c-2.1,3.6-5.4,5-18.9,9.2s-16.9,5.1-20.7,3.4c-4.4-2.3-6.2-7.7-4.1-12.2
	c1.7-2.6,4.3-4.4,7.3-5.2l1.1,3.4c-3.5,1.2-6.9,3.3-5.6,7.6c0.4,1.4,1.4,2.6,2.8,3.1c2.7,1.1,5.3,0.6,18.1-3.5s15.3-5.2,17-7.6
	c0.8-1.3,0.9-2.8,0.4-4.2c-1-2.9-4.1-4.4-8.2-3.1l-10.8,3.4l1.6,5.2l-3,1l-2.8-8.7l13.9-4.3C61.6,346,66.2,349,67.6,353.6z
	 M55.9,313c2,1.4,3.3,3.6,3.6,6c0.4,2.4-0.1,4.9-1.6,6.8c-1.7,2.1-4.2,3.5-6.9,3.8l-36,5.6l-0.5-3.6l36.3-5.7
	c3.8-0.6,5.8-3.4,5.4-6.4s-3.2-4.9-7.1-4.3l-36.3,5.7l-0.6-3.6l36-5.7C50.9,311.1,53.6,311.6,55.9,313z M56.1,287.3l-35.2,14
	l35.8-1.8l0.2,3.6L11,305.4l-0.2-3.7L46,287.8l-35.8,1.8L10,286l45.9-2.3L56.1,287.3z M56.2,276.2l-46-1.4v-3.6l46,1.4V276.2z
	 M57.4,256.1l-0.3,3.6l-46.6,4.8l0.3-4l39.7-3.3l-38.3-10.9l0.4-4L57.4,256.1z M59.1,243.3l-45.2-8.6l2.9-15l3.4,0.7L18,231.8
	l17.5,3.3l1.8-9.8l3.4,0.6l-1.9,9.8l17.6,3.4l2.2-11.4l3.3,0.6L59.1,243.3z M69.1,203.5H47.5l-1.7,5.4l19.7,6.1l-1.1,3.4l-43.8-13.8
	l2.5-8.2c1.6-5.1,4.8-8.4,15-5.2c6.8,2.1,9.5,4.9,9.8,8.7h22.3L69.1,203.5z M26.4,197.3l-1.5,4.9l17.7,5.5l1.5-4.8
	c1.3-4.2-1.4-6.5-7.1-8.2S27.8,193.1,26.4,197.3L26.4,197.3z M78.2,176.3c0.8,2,0.7,4.4-0.6,7.3c-0.9,2.4-2.8,4.2-5.1,5.2
	c-2.7,0.9-5,0.5-9.6-1.6l1.5-3.3c3.2,1.5,5.1,1.9,6.9,1.3c2.9-1.2,4.4-4.5,3.5-7.5c-0.9-2-2.6-3.1-5.8-4.6
	c-5.3-2.4-7.5-2.5-10.5,0.2l-3.8,3.4c-3.6,3.3-6.6,3.4-12.9,0.5c-3.5-1.7-6-3.9-7-6.6c-1.4-4.7,1-9.7,5.5-11.7c3-1,5.6-0.4,9.2,1.3
	l-1.5,3.3c-2.6-1.2-4.5-1.7-6.4-1.1c-1.5,0.4-2.7,1.5-3.2,2.9c-0.7,1.3-0.8,2.8-0.3,4.1c0.7,1.8,2.6,3.3,5.2,4.5
	c4.8,2.2,6.5,2.1,9.8-0.8l3.7-3.4c3.8-3.4,7.5-2.8,13.5,0C74.7,171.7,77.2,173.7,78.2,176.3L78.2,176.3z M85.6,167l-39.8-22.9
	l1.8-3.2l39.9,22.9L85.6,167z M62.5,124.2l34.9,24.2l-2.1,3l-34.9-24.3l-4.2,6.1l-2.8-2l10.4-15l2.8,2L62.5,124.2z M96.4,118.6
	l14.6,12.5l-2.4,2.8L94,121.3l-25.2-11.6l2.6-3l19.5,9.6L78.5,98.4l2.7-3.1L96.4,118.6z M143.1,98.4c-0.1,2.5-1.4,4.8-3.5,6.2
	c-1.9,1.6-4.4,2.3-6.8,1.9c-4-0.7-6.5-3.3-15.2-14.4S106.9,78,107.2,73.9c0.2-2.5,1.4-4.7,3.4-6.2c1.9-1.6,4.4-2.3,6.8-1.9
	c4.1,0.7,6.6,3.3,15.3,14.4S143.4,94.3,143.1,98.4z M116.8,69.3c-1.5-0.3-3,0.1-4.1,1.1c-1.2,0.8-2,2.2-2,3.7
	c0,2.9,1.4,5.2,9.7,15.8s10.2,12.4,13,13.1c1.5,0.3,3-0.1,4.1-1.1c1.2-0.9,2-2.2,2.1-3.7c0-2.9-1.4-5.2-9.7-15.8
	S119.6,70,116.8,69.3z M134,55.9l9.4,15.2l8.5-5.3l1.8,2.9l-8.5,5.3l11.2,18.1l-3.1,1.9l-24.2-39.1l13-8l1.8,2.9L134,55.9z
	 M187,53.8l-4.7,1.9l7.5,18.9l-3.3,1.3l-17-42.7l8.1-3.2c4.8-1.9,9.5-1.6,13.5,8.4S192.7,51.6,187,53.8z M178.9,33.2l-4.7,1.8
	l6.9,17.5l4.7-1.9c4.1-1.6,4.1-5.2,1.9-10.8S183,31.6,178.9,33.2z M225.7,60.5c-2.6,4.4-8.2,5.9-12.7,3.4c-3.4-2.3-4.7-5.7-8.4-19.2
	s-4.3-17.2-2.4-20.9c1.1-2.2,3.2-3.8,5.6-4.3c2.3-0.8,4.9-0.5,7,0.9c3.5,2.2,4.7,5.7,8.4,19.2S227.5,56.8,225.7,60.5z M212.9,23.4
	c-1.3-0.9-2.9-1.1-4.3-0.6c-1.4,0.3-2.6,1.3-3.3,2.6c-1.1,2.7-0.7,5.3,2.8,18.3s4.5,15.5,6.9,17.2c1.2,0.9,2.7,1.1,4.1,0.6
	c1.5-0.3,2.7-1.2,3.4-2.6c1.1-2.7,0.7-5.3-2.8-18.3S215.2,25.1,212.9,23.4z M252.1,55.6c-1.2,1.8-3.2,3-6.3,3.5s-5.3,0.1-7.2-1.3
	s-3.2-3.9-4.1-8.9l3.6-0.6c0.6,3.5,1.3,5.3,2.8,6.5c1.2,0.9,2.8,1.2,4.3,0.9c2-0.4,3.2-1.1,3.9-2.2s1.1-3.9,0.5-7.4
	c-0.9-5.7-2.1-7.6-6-8.6l-5-1.2c-4.7-1.2-6.4-3.6-7.5-10.4c-0.7-3.9-0.2-7.2,1.5-9.5c1.4-1.9,3.5-3.2,5.9-3.4
	c2.4-0.6,4.9-0.1,6.9,1.4c2.5,1.9,3.4,4.4,4,8.3l-3.6,0.6c-0.4-2.8-1.1-4.6-2.6-5.9c-1.2-1-2.7-1.4-4.2-1c-1.4,0.1-2.7,0.9-3.6,2
	c-1.1,1.7-1.2,4-0.8,6.8c0.9,5.3,1.9,6.7,6.1,7.7l4.9,1.3c5,1.2,6.5,4.6,7.6,11.1C254,50.1,253.7,53.2,252.1,55.6L252.1,55.6z
	 M268.4,13.3l3.3,42.4l-3.6,0.2l-3.3-42.4l-7.3,0.6l-0.3-3.4l18.2-1.4l0.3,3.4L268.4,13.3z M303.4,52.7c-1.4,1.6-3.6,2.5-6.8,2.5
	s-5.3-0.7-6.9-2.4s-2.6-4.4-2.6-9.4h3.6c0.1,3.5,0.4,5.4,1.8,6.8c1.1,1.1,2.6,1.6,4.1,1.5c1.5,0.1,3.1-0.4,4.2-1.5
	c1.4-1.6,1.7-3.6,1.7-7.3c0-5.7-0.9-7.8-4.7-9.4l-4.6-2c-4.5-1.9-5.8-4.5-5.8-11.4c-0.1-4,0.9-7.1,2.9-9.1c1.7-1.7,4-2.6,6.4-2.5
	c2.5-0.1,4.8,0.8,6.6,2.5c2.2,2.2,2.7,4.9,2.7,8.9h-3.7c0-2.9-0.3-4.8-1.6-6.3c-1-1.1-2.5-1.7-4-1.7c-1.4-0.1-2.8,0.5-3.8,1.5
	c-1.4,1.4-1.9,3.8-1.9,6.6c0,5.3,0.7,6.8,4.7,8.6l4.7,2c4.8,1.9,5.7,5.6,5.7,12.2C306.1,47.6,305.4,50.7,303.4,52.7z M345.2,63.4
	l0.7-12.8l-9.9-2.5l-5.3,11.6l-3.8-0.9l20.7-42.2l3.3,0.9l-2,46.9L345.2,63.4z M347.5,23.7L337.6,45l8.5,2.1L347.5,23.7z
	 M368.4,71.3l0.8-37.9L357,67.1l-3.5-1.3l15.7-43.1l3.4,1.2l-0.7,37.8L384.1,28l3.4,1.3l-15.7,43.2L368.4,71.3z M394.9,80.5
	c-2.3,0.8-4.8,0.6-7-0.5l-8-4l20.4-41.2l8,4c2.3,1,4,2.9,4.7,5.3c1.1,3.9-0.1,7.1-6.3,19.6S398.7,79,394.9,80.5L394.9,80.5z
	 M409.5,45c-0.4-1.4-1.5-2.6-2.8-3.2l-4.7-2.3l-17.4,35l4.7,2.3c1.3,0.7,2.9,0.8,4.3,0.3c2.6-1.1,4-3.3,9.9-15.1
	S410.2,47.8,409.5,45z M444.8,64.8l-24.7,34.6l-2.9-2.1l24.7-34.6l-6-4.3l2-2.7l14.9,10.6l-2,2.7L444.8,64.8z M433,109.4l30.8-34.2
	l11.3,10.2l-2.3,2.6l-8.6-7.8l-12,13.2l7.5,6.7l-2.3,2.6L450,96l-12,13.3l8.6,7.7l-2.3,2.6L433,109.4z M451.6,127.1l34.5-30.3
	l2.4,2.7l-31.9,28.1l7.7,8.7l-2.6,2.3L451.6,127.1z M467.2,145.7l37.7-26.2l8.7,12.5l-2.8,1.9l-6.7-9.5l-14.6,10.2l5.8,8.2l-2.9,2
	l-5.7-8.3l-14.6,10.2l6.6,9.6l-2.8,1.9L467.2,145.7z M489.7,179.4c-4.5-1.7-6.9-6.7-5.4-11.3c1.4-3.9,4.5-5.8,16.9-12.4
	c12.4-6.6,15.8-8,19.8-7c2.4,0.6,4.4,2.3,5.5,4.5c1.2,2,1.5,4.5,0.7,6.7c-0.9,2.6-3.2,4.8-6.2,6.5l-1.7-3.2c2-1.1,3.8-2.5,4.5-4.4
	c0.5-1.3,0.4-2.8-0.4-4c-0.6-1.4-1.8-2.3-3.2-2.6c-2.9-0.6-5.4,0.4-17.3,6.7s-14.1,7.8-15.3,10.4c-0.6,1.4-0.4,2.9,0.3,4.2
	c0.6,1.3,1.8,2.3,3.2,2.6c1.9,0.5,4.1-0.2,6.1-1.3l1.7,3.2C495.6,179.7,492.4,180.4,489.7,179.4L489.7,179.4z M499.9,202.2
	c-2.3-0.9-4.1-2.8-4.9-5.1c-1-2.2-1-4.8,0.1-7c1.9-3.7,5.1-5.4,18.2-10.5c13.1-5.1,16.6-6.2,20.5-4.7c2.3,0.9,4.1,2.7,4.9,5
	c1,2.3,0.9,4.9-0.1,7.2c-1.9,3.7-5.2,5.3-18.3,10.4S503.8,203.7,499.9,202.2L499.9,202.2z M535.4,185.5c0.7-1.3,0.7-2.9,0.1-4.3
	c-0.5-1.4-1.6-2.5-3-3c-2.7-0.8-5.3-0.2-17.9,4.8s-14.9,6.2-16.3,8.6c-0.7,1.3-0.8,2.9-0.2,4.3c0.5,1.4,1.6,2.5,3,3
	c2.8,0.8,5.4,0.2,17.9-4.8C531.5,189.1,533.9,187.9,535.4,185.5L535.4,185.5z M505.5,229.1l35.8-9.4h-25.1l-0.6-2.1l21.1-12.1
	l-35,9.3L501,212l44.4-11.7l0.8,2.8l-24.3,14l28,0.3l0.8,2.8l-44.4,11.7L505.5,229.1z M510,255.6l36.6-5.2l-24.9-2.9l-0.3-2.1
	l22.4-9.5l-35.9,5.1l-0.4-2.9l45.5-6.5l0.4,2.9l-25.7,11.1l27.8,3.6l0.4,2.8l-45.5,6.5L510,255.6z M513.5,280.6
	c-1.8-1.6-2.8-4-2.8-6.4c-0.1-2.4,0.7-4.8,2.4-6.5c2-1.9,4.6-2.9,7.3-2.9l36.4-1v3.6l-36.7,1.1c-3.9,0.1-6.2,2.6-6.1,5.6
	s2.5,5.4,6.5,5.3l36.7-1.1v3.6L521,283C518.3,283.2,515.6,282.4,513.5,280.6z M510.1,305.2l36.7-9.4L511,293l0.3-3.6l45.8,3.6
	l-0.2,3.6l-36.7,9.4l35.7,2.7l-0.3,3.6l-45.8-3.5L510.1,305.2z M508.8,315.4l45.4,7l-0.6,3.6l-45.4-7.1L508.8,315.4z M505.5,340.2
	c-1-2-1.3-4.2-0.8-6.4c0.5-2.4,2-4.5,4.1-5.7c3.7-2,7.3-1.5,21,1.6s17.1,4.3,19.5,7.7c1.4,2,1.8,4.5,1.2,6.9
	c-0.4,2.3-1.8,4.4-3.8,5.6c-2.3,1.4-5.6,1.5-9,0.8l0.8-3.5c2.3,0.5,4.6,0.6,6.3-0.3c1.3-0.7,2.1-2,2.4-3.4c0.4-1.4,0.1-2.9-0.8-4.1
	c-1.8-2.2-4.3-3.1-17.4-6.1s-15.8-3.4-18.4-2.1c-1.3,0.7-2.3,1.9-2.5,3.4c-0.4,1.4-0.2,2.8,0.6,4c1.2,1.6,3.3,2.5,5.6,3l-0.8,3.5
	C509.9,344.3,507,342.7,505.5,340.2L505.5,340.2z M495.7,365.4l12.7,1.6l3.7-10.4l-11.1-6.5l1.4-4l39.9,25.1l-1.2,3.4l-46.8-5.3
	L495.7,365.4z M535.3,370.6L515,358.5l-3.1,9L535.3,370.6z M526.7,400.4l-38.5-18.1l1.7-3.6l38.4,18.2l3.4-7.2l3.1,1.5l-8.4,17.8
	l-3.1-1.5L526.7,400.4z M482.7,392.9l40.2,22.4l-2,3.4l-40.1-22.4L482.7,392.9z M470,417.5c-0.5-2.6,0.1-5.3,1.7-7.4
	c1.3-2.3,3.6-3.9,6.2-4.4c4.2-0.7,7.4,1,19.1,8.8s14.5,10.1,15.4,14.3c0.5,2.6-0.1,5.3-1.6,7.4c-1.4,2.2-3.6,3.8-6.2,4.4
	c-4.3,0.7-7.5-1-19.2-8.8S470.9,421.7,470,417.5z M504.2,436.9c1.5-0.3,2.9-1.3,3.7-2.6c1-1.2,1.3-2.9,0.9-4.4
	c-0.8-2.9-2.8-4.6-14-12.1s-13.6-8.7-16.5-8.4c-1.6,0.3-2.9,1.2-3.7,2.6c-1,1.2-1.4,2.9-1,4.4c0.8,2.9,2.8,4.6,14,12.1
	S501.2,437.2,504.2,436.9z M453.3,435l35.9,12.8l-27.5-23l2.5-3l35.3,29.4l-2.5,3.1l-35.9-12.8l27.5,22.9l-2.5,3L450.8,438
	L453.3,435z M437.9,453.7c0.1-2.2,1.1-4.5,3.5-6.9s4.7-3.5,7.1-3.5s5,1.2,8.6,4.8l-2.8,2.7c-2.5-2.5-4.1-3.6-6.2-3.5
	c-1.6,0.1-3.1,0.8-4.2,2c-1.6,1.5-2.2,2.9-2.1,4.2s1.2,3.9,3.7,6.5c4,4.1,6.1,4.9,10.2,3.2l5-2.1c4.8-2,7.6-1.1,12.5,3.8
	c2.7,2.8,4.2,5.8,4,8.8c-0.2,2.5-1.3,4.9-3.2,6.6c-2.2,2.1-4.5,3.2-6.8,3.2s-5.5-1.5-8.3-4.4l2.8-2.7c2,2,3.6,3.1,5.7,3.2
	c1.6,0.1,3.2-0.6,4.3-1.8c1.1-1,1.8-2.4,1.9-3.9c0-2.1-1.2-4.2-3.2-6.2c-3.7-3.8-5.4-4.3-9.7-2.5l-5,2.1c-5,2.2-8.2,0.3-12.9-4.5
	S437.8,456.7,437.9,453.7z"/>
<path id="北京邮电大学" class="st0" d="M187.2,523.8L187.2,523.8c-3.3,6.3-6.1,9.6-8.5,10.2h-0.8c-0.7,0-1.3-0.2-1.9-0.6
	l-3.5-1.8c-1.2-0.4-2.2-1.3-2.7-2.5c-0.5-1.4-0.2-3.2,0.9-5.4l18-34.9c0.7-0.6,1.2-0.7,1.6-0.5s0.5,0.7,0.5,1.5h-0.1l-6.8,13.2
	c4.5-1.1,8.8-2.9,12.7-5.4h0.1c0.7,0.1,1.2,0.3,1.3,0.7s0.1,1-0.5,1.8l0,0c-4.6,2.9-9.7,4.9-15.1,6l-9.4,18.5
	c-0.7,1.5-0.9,2.6-0.6,3.4c0.3,0.6,0.8,1,1.4,1.2l3.6,1.8c0.3,0.3,0.8,0.4,1.2,0.3c1.6-0.5,3.8-3.3,6.5-8.5h0.1
	c0.6-0.4,1-0.5,1.4-0.3S187.1,523.1,187.2,523.8z M233.3,517.7c0.5,1.2,0.5,2.6,0,3.8l-2,6.8c-0.3,1.8-1,2.9-2,3.4
	c-0.9,0.5-2.1,0.5-3,0l-8.6-2.4l-3.7,13.5c-0.1,1.1-0.7,2.1-1.6,2.7c-0.4,0.2-0.9,0.3-1.4,0.3c-0.7,0-1.4-0.1-2.1-0.4
	c-1.6-0.9-3.1-2-4.3-3.3h-0.1c-0.2-0.7-0.2-1.4,0.1-2c0.4-0.4,0.9-0.6,1.4-0.5h0.2c3.1,3.2,4.5,3.6,5.1,3.4s0.5-0.5,0.5-1.1
	l3.7-13.2l-9.2-2.6c-0.9,0-1.7-0.3-2.3-1c-0.7-1.1-0.7-2.8-0.1-5.2l1.8-6.5c1-2.6,2.7-3.6,5-3L231,516
	C232,516.2,232.8,516.9,233.3,517.7L233.3,517.7z M231,519.6c-0.3-0.5-0.8-0.8-1.4-0.9l-19.1-5.4h-0.9c-0.9,0-1.5,0.5-1.8,1.6
	l-1.7,6.1c-0.3,0.7-0.3,1.4-0.1,2.1c0.2,0.2,0.4,0.3,0.7,0.3h0.1l20.3,5.6c0.3,0.2,0.8,0.3,1.2,0.2c0.5-0.2,0.7-0.8,0.9-1.8l1.7-6.1
	C231.2,520.8,231.3,520.1,231,519.6L231,519.6z M239.1,511.3l-15.3-4.2c0-2.1-0.1-4.1-0.4-6.2h-0.1c-0.3-0.7-0.7-1-1.2-1
	s-0.8,0.5-1.2,1.3l0,0c0.3,1.7,0.4,3.4,0.4,5.1l-14.7-4.1h-0.3c-0.8,0.6-1.1,1.7-0.7,2.6h0.1l32.5,9h0.2c0.6-0.1,1.1-0.5,1.2-1.1
	C239.7,512.1,239.5,511.6,239.1,511.3L239.1,511.3z M208.9,531.3v-0.2c0.2-0.9,0.2-1.5-0.2-1.8s-0.7-0.3-1.3,0h-0.1
	c-3.4,3.5-7.2,6.7-11.2,9.5H196c-0.6,0.7-0.8,1.2-0.6,1.7c0.2,0.5,0.6,0.8,1.1,0.8h0.2C201.1,538.4,205.2,535.1,208.9,531.3
	L208.9,531.3z M224.1,533.6L224.1,533.6c-0.5-0.4-1.1-0.5-1.7-0.4c-0.4,0.2-0.6,0.8-0.7,1.8h0.1c1.4,3.9,2.8,8.7,4.2,14.3h0.1
	c0.3,0.3,0.7,0.4,1.1,0.5h0.3c0.5-0.1,0.8-0.7,0.9-1.7l0,0C227.3,543.2,225.9,538.3,224.1,533.6L224.1,533.6z M182.6,485.8
	c0-0.8-0.1-1.3-0.5-1.5s-0.9-0.1-1.5,0.5l-5.1,9.7l-9.1-4.7l0,0c-0.8,0.2-1.2,0.4-1.4,0.9s-0.2,0.9,0.1,1.6l0,0l9.1,4.6l-6.7,13.1
	c-4.7,2-9.6,3.3-14.6,4h-0.1c-0.7,0.6-1.1,1.1-1,1.5s0.3,0.8,0.9,1.1h0.1c4.4-0.3,8.8-1.4,12.9-3.1l-5.5,10.7l0,0
	c0,0.9,0.1,1.4,0.5,1.5h0.3c0.4,0,0.9-0.2,1.2-0.5h0.1L182.6,485.8L182.6,485.8z M378.3,503.4l24.4-12.8c0.2-0.2,0.6-0.2,0.8,0
	c0.8,0.3,1.9,2,2.8,8h0.1c0.6,0.6,1.1,0.8,1.5,0.7c0.5-0.1,0.8-0.5,0.9-1l0,0c-1.2-6.2-2.7-9.7-4.7-10.6c-0.8-0.4-1.7-0.4-2.4,0.1
	l-3.2,1.7c-0.2-3-0.5-6-1.1-9l0,0c-0.6-0.6-1.1-0.9-1.6-0.7s-0.6,0.4-0.8,1l0,0c0.7,3.3,1,6.6,0.8,10l-4.6,2.4
	c-2.8-2.6-5.8-5-8.9-7.2h-0.2c-0.5,0.1-0.9,0.3-1,0.7c-0.2,0.6-0.1,1.2,0.2,1.7h0.1c2.6,1.9,5.1,3.9,7.5,6L382,498
	c-2.5-2.1-5.1-4-8-5.5h-0.2c-0.4,0.1-0.7,0.5-0.8,0.9c-0.1,0.5,0,1,0.3,1.4h0.1c2.6,1.7,4.7,3.1,6.2,4.3l-3.2,1.7
	c-0.8,0.4-1.5,1.2-1.7,2.1c-0.1,1.1,0.2,2.2,0.8,3.2l3.3,6.3h0.1c0.3,0.2,0.6,0.3,1,0.4h0.4c0.4-0.4,0.6-0.9,0.6-1.4l0,0l-3-5.7
	C377,504.3,377.7,503.7,378.3,503.4L378.3,503.4z M415.4,505.6c-0.3-0.4-0.8-0.7-1.3-0.9H414l-13,6.8c-0.6-0.5-1.2-0.9-1.9-1.2
	c-0.6-0.2-0.9-0.4-1-0.7c0-0.5,0.2-1,0.6-1.3c2.7-4.1,4.1-6.8,4.1-8.1c-0.1-0.8-0.6-1.6-1.3-2c-0.8-0.4-2.1-0.2-3.8,0.7l-15.5,8.1
	l0,0c-0.2,0.5-0.2,1.1,0,1.6c0.2,0.5,0.7,0.8,1.2,0.8h0.1l15.3-8c0.5-0.2,0.7-0.2,0.7-0.1s0.3,0.9-3.6,6c-1,1.8-0.8,3.3,0.8,4.4
	l1.9,0.9l-14.9,7.7l0,0c-0.2,0.5-0.2,1.1,0,1.6c0.3,0.5,0.8,0.8,1.3,0.8h0.1l15.9-8.4c3.6,3.6,5.3,6.5,5.1,8.7
	c-0.2,1.2-0.9,2.3-1.9,3c-1.8,1.2-4.1,1.4-6.8,0.5h-0.3c-0.4,0.3-0.6,0.8-0.6,1.3c0,0.4,0.3,0.8,0.8,1.3l0,0
	c1.1,0.4,2.3,0.6,3.5,0.6c1.6,0,3.3-0.4,4.7-1.2c1.7-0.9,2.9-2.6,3.2-4.5c0.4-2.9-1.4-6.6-5.4-10.9l12.1-6.3l0,0
	C415.5,506.4,415.5,506,415.4,505.6L415.4,505.6z M375.8,538.2h-0.1c-8.4-1.7-16.6-9.8-24.5-24.3l16.2-4.6h0.2
	c0.3-0.5,0.5-1,0.4-1.6c-0.1-0.5-0.5-0.8-1.2-1.1h-0.1l-16.3,4.6l-2.7-9.7h-0.1c-0.5-0.6-1-0.9-1.4-0.8s-0.7,0.6-0.8,1.4l0,0
	l2.7,9.7l-14.4,4.1h-0.2c-0.4,0.4-0.6,1-0.4,1.6c0.2,0.5,0.7,0.9,1.2,1.1h0.1l14.5-4.1c2.8,14.5,0.5,25.7-7,33.2h-0.1
	c-0.2,0.7-0.2,1.4,0.1,2c0.3,0.3,0.8,0.4,1.2,0.4h0.4c7.1-7,10-17.1,8.7-29.8c7.1,11.9,15,18.8,23.5,20.8h0.2
	c0.4-0.4,0.7-0.9,0.8-1.4C376.7,539.1,376.4,538.5,375.8,538.2L375.8,538.2z M264.9,520.9l-2.5,29.1c0,1.7-0.4,2.9-1.2,3.5
	c-0.4,0.4-1,0.6-1.6,0.5h-0.8l-11.6-1c-0.8,0.1-1.6-0.2-2.1-0.8c-0.7-0.7-1-1.9-0.8-3.7l2.4-29.2c0-1.1,0.4-2.2,1.1-3
	c0.7-0.7,1.6-1.1,2.6-0.9l4.6,0.4l0.7-8.1l0,0c0.3-0.4,0.7-0.7,1.2-0.8c0.5,0,0.8,0.4,1.1,1l0,0l-0.7,8.1l4.7,0.4
	C264.4,516.8,265.3,518.4,264.9,520.9z M247.7,535.5l-1,12.4c-0.2,0.7-0.1,1.4,0.3,2c0.3,0.2,0.6,0.3,1,0.3l4.1,0.3l1.2-14.5
	L247.7,535.5z M260.2,549.1L260.2,549.1l1-12.4l-5.6-0.5l-1.2,14.5l4,0.3c0.4,0.2,0.9,0.2,1.3,0
	C260.1,550.4,260.3,549.8,260.2,549.1L260.2,549.1z M250.8,518.3c-0.5-0.1-0.9,0.1-1.3,0.4c-0.3,0.5-0.5,1-0.5,1.6l-1.1,12.4
	l5.6,0.4l1.3-14.5L250.8,518.3z M257.1,518.8l-1.2,14.5l5.6,0.5l1-12.4c0.2-0.6,0.1-1.2-0.1-1.7c-0.3-0.3-0.8-0.5-1.3-0.5
	L257.1,518.8z M327.8,541.3c0.6,5,0.1,8.2-1.4,9.9c-0.8,0.8-2,1.2-3.1,1.1l-11.6,1.1h-0.8c-0.6,0-1.1-0.2-1.6-0.5
	c-0.9-0.6-1.4-1.9-1.6-3.8l-0.6-6.5l-10.7,1c-0.7,0.2-1.5,0.1-2.2-0.3c-0.9-0.6-1.4-1.8-1.5-3.6l-1.9-19.7c-0.2-1.1,0.1-2.2,0.6-3.2
	c0.5-0.8,1.4-1.3,2.3-1.3l10.8-1l-0.5-5.3l0,0c0.3-0.8,0.6-1.2,1-1.2s0.8,0.3,1.3,1l0,0l0.5,5.3l10.7-1c0.9-0.2,1.8,0.1,2.6,0.6
	c0.8,0.9,1.2,2.1,1.1,3.3L323,537c0.3,2.8-0.8,4.3-3.2,4.5l-10.4,1l0.5,5.6c0,0.8,0.4,1.7,0.9,2.3c0.4,0.2,0.8,0.2,1.2,0.1l10.7-1
	c0.7,0.2,1.4-0.1,1.9-0.6c1.1-1,1.3-3.5,0.8-7.4l0,0c0.3-0.8,0.7-1.2,1.1-1.2S327.3,540.6,327.8,541.3L327.8,541.3z M304.7,517.5
	l-10.1,0.9c-0.7,0.1-1.5,0.4-1.4,2.3l0.7,6.8l11.7-1.1L304.7,517.5z M305.8,529.3l-11.7,1.1l0.8,8.4c0.1,1,0.4,1.7,0.8,1.9
	s0.5,0.2,1,0.1l0,0l10.1-1L305.8,529.3z M318.9,518.3c0.1-0.6,0-1.2-0.4-1.7c-0.4-0.3-0.8-0.4-1.3-0.3l-10.1,0.9l0.8,9l11.7-1.1
	L318.9,518.3z M320.5,538.4c0.3-0.4,0.3-1,0.1-2l-0.7-8.4l-11.7,1.1l1,10.5l10.1-0.9C319.7,538.8,320.2,538.6,320.5,538.4
	L320.5,538.4z M278.5,510.6l-6.8-0.6c-2.2-0.2-3.4,1.2-3.6,3.9l-3.4,40.3l0,0c0.3,0.8,0.6,1.2,1,1.2h0.1c0.4,0,0.8-0.3,1.2-1
	l3.3-39.6c0.1-0.6,0.3-1.1,0.6-1.6c0.3-0.3,0.8-0.4,1.2-0.4l5.5,0.5c0.2,0,0.5,0.1,0.6,0.3c0.2,0.6,0.2,1.3-0.1,1.9
	c-1.1,4.4-2.6,8.6-4.5,12.7c-0.5,1.3-0.5,2.8,0,4.1c3.2,5.5,4.6,9.8,4.1,12.6s-0.5,3.4-1.4,4.2c-0.8,0.6-1.7,0.9-2.7,0.7
	c-1.4-0.4-2.7-1.2-3.7-2.2h-0.1c-0.4,0-0.9,0.1-1.2,0.4c-0.4,0.3-0.5,0.9-0.5,1.8h0.1c0.9,1.2,2.7,2.2,5.4,2.9s5.5-1.7,6.3-6
	s-0.6-9.8-4.2-15.7c-0.3-0.7-0.3-1.5,0.2-2.1c2-4.5,3.7-9.1,4.9-13.9c0.3-1.1,0.2-2.2-0.2-3.2C280.1,511.1,279.3,510.7,278.5,510.6
	L278.5,510.6z"/>
<circle id="内圈" class="st1" cx="284.2" cy="283.1" r="222.5"/>
<circle id="外圈" class="st2" cx="282.5" cy="282.5" r="280.5"/>
</svg>
